# xmcd CD database file
#
# Track frame offsets:
#	183
#	15595
#	32160
#	45733
#	66905
#	84788
#	98843
#	117143
#	138878
#	157378
#
# Disc length: 2251 seconds
#
# Revision: 1
# Processed by: cddbd v1.5PL3 Copyright (c) Steve Scherf et al.
# Submitted via: CDex 1.51
#
DISCID=7b08c90a
DTITLE=GIRL - Waisted Youth
DYEAR=1982
DGENRE=Hard Rock
TTITLE0=Thru The Twilight
TTITLE1=Old Dogs
TTITLE2=Ice In The Blood
TTITLE3=Waisted Youth
TTITLE4=Standard Romance
TTITLE5=Nice 'N' Tasty
TTITLE6=McKitty's Back
TTITLE7=19
TTITLE8=Overnight Angels
TTITLE9=Sweet Kids
EXTD=YEAR: 1982
EXTT0=
EXTT1=
EXTT2=
EXTT3=
EXTT4=
EXTT5=
EXTT6=
EXTT7=
EXTT8=
EXTT9=
PLAYORDER=
